ply
format ascii 1.0
comment VCGLIB generated
element vertex 45
property float x
property float y
property float z
property float nx
property float ny
property float nz
property float texture_u
property float texture_v
element face 68
property list uchar int vertex_indices
end_header
10.8642 -24.8219 22.5519 0.229898 -0.972739 -0.0304263 0.6129 0.2117
11.4256 -24.8219 34.5046 0.266011 -0.963958 0.00478298 0.6227 0.5
3.3187 -25.8721 34.4954 0.0550706 -0.998383 0.0141247 0.4905 0.5
2.2109 -25.8721 20.928 0.047769 -0.997164 -0.058162 0.483 0.2077
10.8662 -24.8219 46.454 0.206547 -0.977774 0.0360058 0.6324 0.7883
2.2109 -25.8721 48.0624 0.0343893 -0.995588 0.0873033 0.498 0.7923
10.0974 -24.2587 13.6589 0.116725 -0.94051 -0.319086 0.6189 0.0255
8.9658 -24.8219 14.9471 0.154347 -0.973153 -0.170735 0.6026 0.0642
0.3737 -24.8219 13.3313 0.0304628 -0.966004 -0.256726 0.4789 0.0542
0.0238 -24.2587 11.8843 0.0286723 -0.928248 -0.370856 0.4781 0.0249
8.9513 -24.8219 54.0359 0.157776 -0.973761 0.164003 0.6323 0.9348
0.3443 -24.8219 56.1349 0.0572756 -0.970843 0.232772 0.5021 0.945
-0.0113 -24.2587 57.6725 0.0564258 -0.935083 0.349909 0.5028 0.974
-14.0492 -24.2587 58.0041 -2.09976e-006 -0.935071 0.354461 0.341 0.9746
-14.0633 -24.8219 56.5604 0.00997626 -0.958757 0.284051 0.3405 0.9462
-14.1375 -25.8721 48.9813 -0.00159752 -0.993414 0.114573 0.3379 0.7971
-14.1465 -25.8721 34.4942 -0.00121658 -0.999765 0.0216666 0.3331 0.5
-14.1369 -25.8721 20.0092 -1.27831e-006 -0.996675 -0.0814802 0.3283 0.2029
-14.0632 -24.8219 12.9051 -1.98447e-006 -0.954291 -0.298879 0.3257 0.0529
-36.3126 -24.2587 55.3746 -0.177474 -0.939078 0.29434 0.0629 0.9757
-35.5449 -24.8219 54.0421 -0.192226 -0.965245 0.177062 0.0763 0.9391
-28.464 -24.8219 56.1351 -0.0442495 -0.968292 0.245872 0.179 0.9475
-28.0754 -24.2587 57.6728 -0.0399525 -0.934401 0.353975 0.1793 0.9752
-37.5883 -24.8219 46.4435 -0.26495 -0.96211 0.0643894 0.0714 0.805
-38.1837 -24.8219 34.5045 -0.31954 -0.947573 -8.55739e-007 0.0711 0.5
-31.6116 -25.8721 34.4957 -0.0663322 -0.99778 0.00591265 0.1757 0.5
-30.5038 -25.8721 48.0624 -0.0611857 -0.99482 0.0811718 0.1779 0.8018
-37.5882 -24.8219 22.5621 -0.251061 -0.96689 -0.0457327 0.0707 0.195
-30.5038 -25.8721 20.928 -0.0393588 -0.997036 -0.0661051 0.1736 0.1982
-35.5653 -24.8219 14.947 -0.178513 -0.965671 -0.188713 0.0754 0.0601
-28.4982 -24.8219 13.3312 -0.0483618 -0.966813 -0.250866 0.1725 0.0517
-36.6977 -24.2587 54.9876 -0.346472 -0.92635 0.147758 0.0511 0.9548
-38.9378 -24.2587 46.1352 -0.395361 -0.917375 0.0459609 0.0511 0.8056
10.4075 -24.2587 13.9568 0.290915 -0.950626 -0.10807 0.6318 0.0484
12.5125 -24.2587 22.8612 0.336794 -0.941555 -0.00663346 0.6376 0.2125
12.9698 -24.2587 34.5063 0.334573 -0.942272 0.0135748 0.6478 0.5
12.5148 -24.2587 46.1476 0.326124 -0.94462 0.0365665 0.658 0.7875
10.0596 -24.2587 55.3506 0.126043 -0.94557 0.300017 0.6519 0.9735
-14.0492 -24.2587 11.5519 -2.52028e-006 -0.927302 -0.374315 0.3252 0.0244
-39.4356 -24.2587 34.5062 -0.399211 -0.916859 -1.07214e-006 0.0511 0.5
-38.9376 -24.2587 22.8734 -0.395954 -0.917127 -0.045799 0.0511 0.1944
-36.3603 -24.2587 13.6468 -0.127937 -0.932684 -0.337242 0.0623 0.0234
-28.1162 -24.2587 11.8842 -0.0337012 -0.927478 -0.372355 0.1722 0.0238
10.4109 -24.2587 54.9968 0.268134 -0.951923 0.148144 0.6638 0.9505
-36.6985 -24.2587 13.9686 -0.313185 -0.933216 -0.176136 0.0511 0.0442
3 0 1 2 
3 0 2 3 
3 2 1 4 
3 2 4 5 
3 6 7 8 
3 6 8 9 
3 5 10 11 
3 12 13 14 
3 12 14 11 
3 15 16 2 
3 15 2 5 
3 16 17 3 
3 16 3 2 
3 17 18 8 
3 17 8 3 
3 19 20 21 
3 19 21 22 
3 23 24 25 
3 23 25 26 
3 25 24 27 
3 25 27 28 
3 28 29 30 
3 22 21 14 
3 22 14 13 
3 26 25 16 
3 26 16 15 
3 25 28 17 
3 25 17 16 
3 17 28 30 
3 17 30 18 
3 31 32 23 
3 31 23 20 
3 19 31 20 
3 5 4 10 
3 0 7 33 
3 0 33 34 
3 6 33 7 
3 28 27 29 
3 1 0 34 
3 1 34 35 
3 1 35 36 
3 1 36 4 
3 7 3 8 
3 37 12 11 
3 37 11 10 
3 15 5 11 
3 15 11 14 
3 18 38 9 
3 18 9 8 
3 20 26 21 
3 32 39 24 
3 32 24 23 
3 24 39 40 
3 24 40 27 
3 41 42 30 
3 41 30 29 
3 21 26 15 
3 21 15 14 
3 42 38 18 
3 42 18 30 
3 23 26 20 
3 43 10 4 
3 43 4 36 
3 10 43 37 
3 0 3 7 
3 44 29 27 
3 44 27 40 
3 29 44 41 
